<svg xmlns="http://www.w3.org/2000/svg" width="512" height="512" viewBox="0 0 512 512">
  <defs>
    <linearGradient id="grad2" x1="0" y1="0" x2="1" y2="1">
      <stop offset="0%" stop-color="#ff4d8a"/>
      <stop offset="100%" stop-color="#3e2f5b"/>
    </linearGradient>
  </defs>
  <rect width="512" height="512" rx="96" fill="url(#grad2)"/>
  <path d="M148 144h216a24 24 0 0 1 24 24v176a24 24 0 0 1-24 24H148a24 24 0 0 1-24-24V168a24 24 0 0 1 24-24z" fill="#fff" opacity="0.95"/>
  <path d="M186 206h140v22H186zM186 256h140v22H186zM186 306h90v22H186z" fill="#3e2f5b" opacity="0.85"/>
  <path d="M272 182h22v32h-22z" fill="#ff4d8a"/>
</svg>
